<?xml version="1.0" encoding="utf-8"?>
<!-- Generator: Adobe Illustrator 15.1.0, SVG Export Plug-In . SVG Version: 6.00 Build 0)  -->
<!DOCTYPE svg PUBLIC "-//W3C//DTD SVG 1.1//EN" "http://www.w3.org/Graphics/SVG/1.1/DTD/svg11.dtd">
<svg version="1.1" id="レイヤー_1" xmlns="http://www.w3.org/2000/svg" xmlns:xlink="http://www.w3.org/1999/xlink" x="0px"
	 y="0px" width="460px" height="100px" viewBox="0 0 460 100" enable-background="new 0 0 460 100" xml:space="preserve">
<text transform="matrix(1 0 0 1 -313.9258 -38.4893)"><tspan x="0" y="0" fill="#2B3137" font-family="'Helvetica-Bold'" font-size="31.8021">C</tspan><tspan x="23.597" y="0" fill="#2B3137" font-family="'Helvetica-Bold'" font-size="31.8021">O</tspan><tspan x="47.703" y="0" fill="#2B3137" font-family="'Helvetica-Bold'" font-size="31.8021">F</tspan><tspan x="67.133" y="0" fill="#2B3137" font-family="'Helvetica-Bold'" font-size="31.8021">F</tspan><tspan x="85.928" y="0" fill="#2B3137" font-family="'Helvetica-Bold'" font-size="31.8021">EE</tspan><tspan x="128.352" y="0" fill="#2B3137" font-family="'Helvetica-Bold'" font-size="31.8021" letter-spacing="1"> </tspan><tspan x="138.464" y="0" fill="#2B3137" font-family="'Helvetica-Bold'" font-size="31.8021">S</tspan><tspan x="159.04" y="0" fill="#2B3137" font-family="'Helvetica-Bold'" font-size="31.8021" letter-spacing="-2">T</tspan><tspan x="175.927" y="0" fill="#2B3137" font-family="'Helvetica-Bold'" font-size="31.8021">A</tspan><tspan x="198.888" y="0" fill="#2B3137" font-family="'Helvetica-Bold'" font-size="31.8021">N</tspan><tspan x="221.212" y="0" fill="#2B3137" font-family="'Helvetica-Bold'" font-size="31.8021">D</tspan></text>
<rect y="170" fill="#231815" width="870" height="100"/>
<path fill="#FFFFFF" d="M65.358,36.224c-1.334-4.778-3.89-13.78-17.668-13.78c-7.998,0-19.776,5.334-19.776,27.891
	c0,14.334,5.664,27.223,19.776,27.223c9.222,0,15.665-5.223,17.668-15.001h16.668C78.688,79.891,67.358,92,47.355,92
	c-21.221,0-36.44-14.332-36.44-41.889C10.915,22.223,27.024,8,47.58,8c23.89,0,33.554,16.444,34.446,28.224H65.358z"/>
<path fill="#FFFFFF" d="M131.693,8c10.559,0,38.336,4.556,38.336,42s-27.777,42-38.336,42c-10.551,0-38.331-4.556-38.331-42
	S121.142,8,131.693,8z M131.693,77.889c9.004,0,21.672-5.555,21.672-27.889s-12.668-27.889-21.672-27.889
	c-8.998,0-21.666,5.555-21.666,27.889S122.695,77.889,131.693,77.889z"/>
<path fill="#FFFFFF" d="M197.813,89.891h-16.668V10.109h56.781v14.113h-40.113v17.998h35.113v14.111h-35.113V89.891z"/>
<path fill="#FFFFFF" d="M265.709,89.891h-16.664V10.109h56.775v14.113h-40.111v17.998h35.113v14.111h-35.113V89.891z"/>
<path fill="#FFFFFF" d="M373.383,24.223h-42.336V41h38.891v14.113h-38.891v20.664h44.225v14.113h-60.557V10.109h58.668V24.223z"/>
<path fill="#FFFFFF" d="M447.5,24.223h-42.334V41h38.889v14.113h-38.889v20.664h44.219v14.113H388.83V10.109h58.67V24.223z"/>
</svg>
